<?xml version="1.0" standalone="no"?>
<!DOCTYPE svg PUBLIC "-//W3C//DTD SVG 20010904//EN"
 "http://www.w3.org/TR/2001/REC-SVG-20010904/DTD/svg10.dtd">
<svg version="1.0" xmlns="http://www.w3.org/2000/svg"
 width="316.000000pt" height="501.000000pt" viewBox="0 0 316.000000 501.000000"
 preserveAspectRatio="xMidYMid meet">

<g transform="translate(0.000000,501.000000) scale(0.100000,-0.100000)"
fill="#000000" stroke="none">
<path d="M1508 5003 c12 -2 30 -2 40 0 9 3 -1 5 -23 4 -22 0 -30 -2 -17 -4z"/>
<path d="M1359 4273 c-37 -31 -69 -96 -62 -124 3 -11 19 -31 37 -45 l31 -27 6
32 c4 18 14 40 23 50 18 19 24 141 7 141 -5 0 -24 -12 -42 -27z"/>
<path d="M1640 4243 c0 -27 3 -92 7 -145 6 -95 7 -98 30 -98 19 0 23 4 19 18
-9 26 11 133 29 152 23 26 18 49 -19 86 -49 49 -66 45 -66 -13z"/>
<path d="M2115 4241 l14 -40 -42 -5 c-57 -8 -255 -26 -281 -26 -20 0 -20 -2 4
-20 41 -33 82 -39 191 -29 115 10 149 25 149 67 0 24 -33 92 -44 92 -3 0 1
-18 9 -39z"/>
<path d="M372 3985 c0 -16 2 -22 5 -12 2 9 2 23 0 30 -3 6 -5 -1 -5 -18z"/>
<path d="M2684 3845 c0 -55 1 -76 3 -47 2 29 2 74 0 100 -2 26 -3 2 -3 -53z"/>
<path d="M360 3838 c0 -34 2 -59 4 -57 8 8 12 119 4 119 -4 0 -8 -28 -8 -62z"/>
<path d="M1120 3846 c0 -13 123 -82 191 -107 96 -35 99 -35 99 -6 0 21 -7 25
-64 36 -35 7 -99 28 -142 47 -84 36 -84 36 -84 30z"/>
<path d="M2145 3733 c8 -24 18 -67 21 -98 l7 -55 -46 -19 c-68 -29 -167 -98
-213 -148 l-41 -45 -74 16 c-40 10 -111 20 -156 23 l-83 6 0 -82 0 -81 -30 0
-30 0 0 81 0 82 -75 -7 c-42 -4 -116 -17 -165 -30 l-90 -22 -26 38 c-85 122
-277 217 -437 218 -57 0 -58 1 -73 35 -8 20 -13 39 -10 43 2 4 -2 18 -10 32
-11 19 -14 20 -10 5 3 -11 7 -36 10 -55 2 -19 6 -41 8 -49 2 -9 -13 -18 -45
-27 -27 -7 -72 -24 -101 -38 -29 -14 -55 -26 -58 -26 -3 0 -11 28 -18 62 -8
34 -15 57 -17 51 -2 -6 2 -36 11 -67 l14 -56 -51 -53 c-134 -137 -177 -332
-126 -580 19 -94 76 -258 104 -300 10 -14 7 -33 -16 -100 -42 -123 -59 -224
-59 -344 0 -294 116 -622 309 -875 l54 -71 -26 -101 c-55 -216 -56 -324 -3
-359 13 -9 50 -24 82 -34 83 -25 341 -25 434 0 75 21 94 36 129 109 22 46 30
53 51 50 14 -2 141 -5 283 -6 l258 -2 24 -51 c28 -62 55 -81 134 -96 l61 -12
0 -265 c0 -146 4 -271 9 -279 7 -10 36 -12 132 -10 114 4 128 6 172 32 26 15
47 30 47 33 0 3 -16 -4 -36 -15 -42 -25 -143 -41 -190 -31 -18 4 -35 5 -38 2
-13 -13 -17 42 -19 305 l-2 282 35 3 c19 2 -12 4 -70 3 -139 0 -165 11 -197
84 -14 31 -30 59 -36 63 -7 4 -100 5 -207 2 -118 -4 -232 -2 -290 5 -114 13
-128 7 -168 -77 -25 -53 -31 -58 -82 -76 -78 -28 -338 -29 -422 -3 -84 26 -94
45 -79 153 10 75 49 240 66 284 3 10 -15 42 -50 85 -168 208 -282 490 -315
772 -16 137 7 315 56 432 l14 34 21 -21 c16 -18 24 -20 40 -11 11 5 24 22 30
36 72 189 135 290 262 418 105 106 155 135 362 210 72 26 132 49 134 51 2 2
-3 12 -11 21 -8 10 -18 35 -21 55 -5 35 -4 38 27 48 42 13 181 40 212 40 23 0
24 -2 24 -80 l0 -80 75 0 75 0 0 80 0 80 34 0 c37 0 181 -26 196 -35 5 -3 3
-23 -6 -47 -7 -22 -14 -53 -14 -68 0 -15 -7 -33 -15 -40 -9 -7 -12 -17 -8 -21
4 -4 69 -24 143 -44 74 -20 168 -52 209 -71 152 -70 313 -233 403 -409 58
-114 73 -135 100 -135 23 0 33 -24 65 -165 34 -147 36 -315 3 -459 -45 -204
-132 -408 -244 -576 l-57 -84 27 -101 c27 -104 41 -234 30 -279 -8 -32 -30
-44 -109 -60 l-61 -13 34 -17 c60 -30 159 4 181 62 16 41 4 203 -23 307 l-24
90 52 80 c28 44 70 117 93 162 182 365 217 687 111 1026 l-28 88 23 42 c27 49
69 183 86 277 18 96 15 272 -5 349 -64 240 -246 381 -492 381 -68 0 -94 3 -94
13 0 18 -45 108 -69 137 l-20 25 14 -42z m-1095 -520 c21 -4 11 -10 -51 -33
-138 -50 -216 -98 -303 -185 -45 -45 -99 -107 -121 -138 -22 -31 -43 -56 -46
-57 -9 0 35 206 57 272 21 64 68 113 124 129 77 22 264 29 340 12z m1300 -32
c68 -37 100 -93 150 -271 12 -41 23 -82 26 -91 3 -9 -49 36 -114 101 -106 106
-129 123 -213 163 -52 25 -123 53 -159 63 -36 9 -69 20 -74 25 -29 25 337 35
384 10z"/>
<path d="M371 3718 c0 -26 3 -49 7 -52 4 -2 6 12 4 32 -6 62 -10 69 -11 20z"/>
<path d="M1647 3569 c3 -74 7 -136 9 -138 2 -2 13 0 25 5 19 9 22 19 23 73 2
54 6 67 26 83 13 11 32 17 43 14 13 -3 17 0 15 12 -4 22 -75 70 -115 78 l-32
6 6 -133z"/>
<path d="M1325 3500 c10 -11 20 -20 23 -20 3 0 -3 9 -13 20 -10 11 -20 20 -23
20 -3 0 3 -9 13 -20z"/>
<path d="M1226 2688 c-22 -31 -20 -59 7 -99 56 -83 156 -48 133 47 -17 67
-107 100 -140 52z m99 -28 c-3 -5 -10 -10 -16 -10 -5 0 -9 5 -9 10 0 6 7 10
16 10 8 0 12 -4 9 -10z"/>
<path d="M1736 2669 c-30 -36 -35 -98 -10 -123 18 -18 56 -21 85 -6 23 13 49
61 49 92 0 70 -77 93 -124 37z m84 -9 c0 -5 -7 -10 -15 -10 -8 0 -15 5 -15 10
0 6 7 10 15 10 8 0 15 -4 15 -10z"/>
<path d="M1285 1988 c-36 -28 -55 -76 -55 -137 0 -87 36 -146 95 -157 73 -13
134 59 135 159 0 122 -97 197 -175 135z"/>
<path d="M1645 1988 c-15 -12 -34 -36 -41 -54 -19 -45 -18 -128 3 -171 18 -38
65 -73 98 -73 33 0 80 35 98 73 21 43 22 126 3 171 -30 71 -106 97 -161 54z"/>
<path d="M676 1874 c-16 -23 -24 -26 -62 -21 -37 4 -44 1 -50 -15 -7 -24 3
-35 35 -40 21 -3 27 -13 43 -73 23 -83 83 -214 129 -282 211 -309 611 -446
1004 -343 325 86 574 335 655 658 9 35 15 42 35 42 25 0 31 13 20 42 -4 9 -19
12 -49 10 -37 -3 -46 0 -64 23 -17 21 -27 26 -47 21 -24 -6 -25 -8 -11 -34 8
-16 22 -34 30 -41 22 -18 20 -33 -13 -128 -90 -258 -313 -454 -598 -525 -122
-30 -323 -30 -438 1 -285 76 -492 279 -576 564 l-22 75 27 33 c26 31 27 34 10
46 -25 18 -36 16 -58 -13z"/>
<path d="M2248 753 c7 -3 16 -2 19 1 4 3 -2 6 -13 5 -11 0 -14 -3 -6 -6z"/>
<path d="M2190 710 c-11 -7 -7 -10 17 -10 19 0 43 -10 62 -26 27 -22 31 -33
31 -73 0 -38 -5 -52 -25 -71 -13 -12 -22 -26 -20 -31 9 -13 67 9 97 38 35 34
39 96 8 136 -31 39 -132 61 -170 37z"/>
<path d="M299 649 c-35 -17 -79 -42 -98 -56 -38 -29 -70 -93 -71 -140 0 -22
-5 -33 -15 -33 -24 0 -60 -20 -74 -42 -16 -25 -9 -33 17 -17 28 18 69 3 87
-31 16 -30 20 -97 7 -116 -11 -17 -48 -34 -76 -34 -28 0 -56 -33 -56 -67 0
-25 15 -31 23 -9 4 9 28 15 76 18 61 3 75 7 99 31 25 26 27 33 30 132 l4 105
54 0 54 0 0 -58 c0 -36 -6 -66 -16 -80 -14 -21 -13 -24 26 -61 l41 -39 60 49
c59 50 72 66 44 55 -26 -9 -21 128 6 165 l20 29 -20 0 c-20 0 -21 6 -21 84 0
51 4 88 11 92 6 3 23 -2 37 -13 l27 -20 5 -201 c5 -190 6 -203 27 -223 l21
-22 41 29 c40 29 56 59 25 47 -36 -13 -44 23 -44 187 0 135 3 160 19 192 22
39 17 57 -9 33 -15 -13 -20 -12 -56 15 l-40 29 -62 -40 c-71 -44 -82 -47 -82
-21 0 17 -19 40 -46 55 -6 3 -40 -7 -75 -24z m41 -34 c7 -9 15 -49 18 -90 l5
-75 -38 0 c-23 0 -47 -7 -58 -17 -19 -18 -19 -17 -16 68 3 68 8 92 23 108 23
25 49 27 66 6z m140 -90 c0 -73 -1 -75 -25 -75 -24 0 -25 3 -25 61 0 47 4 65
18 75 9 7 20 14 25 14 4 0 7 -34 7 -75z m-248 -127 c-4 -208 -7 -218 -60 -218
l-24 0 23 19 c23 18 24 26 29 189 4 122 9 174 19 185 7 10 14 17 15 17 2 0 1
-87 -2 -192z m248 -88 c0 -65 -3 -82 -16 -87 -25 -9 -34 16 -34 95 0 70 1 72
25 72 25 0 25 -1 25 -80z"/>
<path d="M2623 580 c-18 -7 -23 -17 -23 -45 0 -43 14 -45 35 -6 8 17 25 37 37
45 l22 16 -24 -1 c-14 0 -35 -4 -47 -9z"/>
<path d="M2490 365 l0 -215 60 0 c33 0 60 4 60 8 0 5 -10 8 -22 8 -23 -1 -23
-1 -29 204 -3 113 -6 206 -7 208 -1 1 -15 2 -32 2 l-30 0 0 -215z"/>
<path d="M2815 561 c-51 -31 -74 -64 -92 -132 -14 -57 -15 -74 -4 -122 14 -62
42 -110 84 -141 38 -28 179 -36 225 -12 17 9 34 21 38 27 3 6 -5 4 -18 -5 -13
-9 -44 -18 -69 -22 -103 -13 -189 82 -189 210 0 89 16 135 62 179 35 34 37 37
16 37 -13 0 -36 -8 -53 -19z"/>
<path d="M2915 536 c-19 -13 -18 -14 6 -9 20 4 32 -2 52 -26 62 -74 62 -204 0
-275 -17 -20 -19 -26 -7 -30 24 -9 61 11 90 49 22 30 28 49 32 110 4 62 1 81
-18 120 -33 67 -107 97 -155 61z"/>
<path d="M2370 509 c-19 -17 -26 -26 -15 -21 18 9 64 52 54 52 -2 0 -20 -14
-39 -31z"/>
<path d="M2673 520 c-18 -11 -33 -22 -33 -25 0 -4 10 1 22 9 12 9 33 16 45 16
13 0 23 5 23 10 0 16 -22 12 -57 -10z"/>
<path d="M827 486 l-57 -31 0 -115 c0 -77 -4 -120 -12 -128 -9 -9 -7 -12 13
-12 13 0 46 -11 73 -23 l50 -23 53 29 53 29 0 126 0 127 -58 26 -58 25 -57
-30z m73 -42 l40 -16 0 -109 c0 -60 -1 -109 -3 -109 -2 0 -24 7 -50 16 l-47
16 0 109 c0 64 4 109 10 109 5 0 28 -7 50 -16z"/>
<path d="M1103 491 c-37 -31 -41 -39 -15 -37 15 1 17 -12 20 -113 2 -69 -1
-118 -8 -125 -16 -16 -12 -23 20 -46 l29 -21 31 22 c28 21 29 24 15 45 -10 16
-15 50 -15 107 0 80 1 84 30 112 25 24 34 27 48 19 14 -9 18 -33 22 -137 4
-109 8 -129 25 -146 20 -20 20 -20 53 5 36 28 41 42 15 40 -16 -1 -18 12 -21
113 -2 89 1 119 13 137 20 31 19 41 -3 21 -16 -15 -20 -14 -47 7 l-29 24 -46
-39 c-26 -22 -49 -39 -52 -39 -3 0 -8 13 -11 29 -10 47 -36 54 -74 22z"/>
<path d="M1523 488 l-63 -30 0 -113 c0 -65 -4 -116 -10 -120 -18 -11 -11 -25
13 -25 12 0 39 -11 59 -25 l36 -24 57 40 c31 23 54 43 51 46 -2 3 -17 -5 -33
-16 -27 -21 -31 -21 -66 -6 -33 14 -37 19 -37 53 0 35 4 40 75 86 83 54 83 51
18 122 l-38 41 -62 -29z m87 -99 c0 -7 -65 -59 -74 -59 -3 0 -6 34 -6 76 l0
77 40 -44 c21 -24 39 -47 40 -50z"/>
<path d="M1744 487 c-31 -28 -34 -35 -17 -30 30 7 36 -19 31 -154 -3 -94 -6
-112 -25 -137 -43 -54 -23 -104 42 -112 45 -5 88 13 93 39 5 23 -20 22 -36 -3
-17 -27 -73 -27 -98 1 -26 28 -14 43 88 106 97 60 142 105 159 161 13 43 1
102 -29 140 l-18 23 -46 -40 c-50 -45 -58 -48 -58 -27 0 8 -11 27 -23 42 l-24
27 -39 -36z m172 -94 c8 -44 -17 -111 -56 -148 l-30 -29 0 101 c0 99 1 102 27
123 26 20 28 20 40 4 7 -10 16 -33 19 -51z"/>
<path d="M2200 450 c-21 -7 -22 -8 -5 -9 43 -3 101 -38 115 -70 17 -41 7 -107
-20 -136 -18 -20 -19 -23 -5 -29 21 -8 71 18 90 48 21 32 25 94 9 128 -28 55
-121 90 -184 68z"/>
</g>
</svg>
