<?xml version="1.0" standalone="no"?>
<!DOCTYPE svg PUBLIC "-//W3C//DTD SVG 20010904//EN"
 "http://www.w3.org/TR/2001/REC-SVG-20010904/DTD/svg10.dtd">
<svg version="1.0" xmlns="http://www.w3.org/2000/svg"
 width="259.000000pt" height="246.000000pt" viewBox="0 0 259.000000 246.000000"
 preserveAspectRatio="xMidYMid meet">

<g transform="translate(0.000000,246.000000) scale(0.100000,-0.100000)"
fill="#000000" stroke="none">
<path d="M1278 2453 c12 -2 30 -2 40 0 9 3 -1 5 -23 4 -22 0 -30 -2 -17 -4z"/>
<path d="M1128 2443 c7 -3 16 -2 19 1 4 3 -2 6 -13 5 -11 0 -14 -3 -6 -6z"/>
<path d="M1448 2443 c7 -3 16 -2 19 1 4 3 -2 6 -13 5 -11 0 -14 -3 -6 -6z"/>
<path d="M1058 2433 c6 -2 18 -2 25 0 6 3 1 5 -13 5 -14 0 -19 -2 -12 -5z"/>
<path d="M1508 2433 c6 -2 18 -2 25 0 6 3 1 5 -13 5 -14 0 -19 -2 -12 -5z"/>
<path d="M1008 2423 c7 -3 16 -2 19 1 4 3 -2 6 -13 5 -11 0 -14 -3 -6 -6z"/>
<path d="M1568 2423 c7 -3 16 -2 19 1 4 3 -2 6 -13 5 -11 0 -14 -3 -6 -6z"/>
<path d="M1608 2413 c7 -3 16 -2 19 1 4 3 -2 6 -13 5 -11 0 -14 -3 -6 -6z"/>
<path d="M1862 2168 c-8 -8 -12 -46 -11 -107 l1 -96 32 70 c47 99 49 110 31
129 -19 19 -37 20 -53 4z"/>
<path d="M687 2163 c-16 -15 -5 -53 36 -121 40 -68 64 -93 53 -54 -2 9 -8 46
-11 82 -4 36 -11 73 -16 83 -10 17 -49 24 -62 10z"/>
<path d="M350 2063 l-65 -68 68 65 c62 60 72 70 64 70 -1 0 -32 -30 -67 -67z"/>
<path d="M2230 2065 c35 -36 67 -65 69 -65 3 0 -24 29 -59 65 -35 36 -67 65
-69 65 -3 0 24 -29 59 -65z"/>
<path d="M767 1934 c-14 -14 -7 -53 12 -63 26 -14 54 8 49 40 -2 17 -10 25
-28 27 -14 2 -29 0 -33 -4z"/>
<path d="M1812 1928 c-18 -18 -14 -46 7 -58 38 -20 71 13 51 51 -12 21 -40 25
-58 7z"/>
<path d="M2340 1936 c0 -2 8 -10 18 -17 15 -13 16 -12 3 4 -13 16 -21 21 -21
13z"/>
<path d="M1996 1875 c-3 -9 -6 -56 -6 -103 l1 -87 35 75 c41 87 42 124 3 128
-17 2 -29 -3 -33 -13z"/>
<path d="M1428 1853 c-31 -8 -19 -21 30 -31 121 -26 128 -27 113 -8 -8 9 -21
21 -30 25 -22 12 -92 20 -113 14z"/>
<path d="M1033 1830 c-35 -21 -45 -45 -15 -36 9 3 40 10 67 16 74 16 86 20 80
31 -11 17 -99 10 -132 -11z"/>
<path d="M1090 1769 c-116 -46 -127 -204 -18 -260 69 -36 140 -20 192 41 14
18 26 27 26 22 0 -21 63 -72 102 -83 33 -9 49 -8 84 6 107 41 137 162 59 240
-62 62 -155 60 -216 -5 l-37 -38 -22 30 c-37 50 -110 70 -170 47z m110 -24
c65 -34 89 -109 55 -175 -44 -86 -193 -76 -231 15 -18 45 -18 63 4 104 33 62
111 87 172 56z m290 0 c65 -34 89 -109 56 -174 -41 -79 -162 -90 -220 -20 -47
55 -30 153 33 192 33 21 93 22 131 2z"/>
<path d="M1083 1573 c-21 -7 -15 -33 7 -33 11 0 20 6 20 14 0 18 -11 25 -27
19z"/>
<path d="M1357 1574 c-14 -14 -7 -35 11 -32 9 2 17 10 17 17 0 16 -18 25 -28
15z"/>
<path d="M1951 1637 c-14 -17 -6 -43 16 -51 22 -9 45 13 41 38 -4 25 -40 33
-57 13z"/>
<path d="M722 1426 c-102 -107 -123 -156 -35 -81 l41 35 47 -15 47 -14 -6 37
c-3 20 -6 54 -6 75 0 20 -4 37 -9 37 -5 0 -40 -33 -79 -74z"/>
<path d="M1861 1358 c-13 -62 -12 -63 13 -83 l25 -20 -162 -94 c-89 -51 -224
-132 -300 -178 -76 -47 -153 -89 -170 -94 -45 -13 -99 -2 -149 31 -107 69
-578 344 -578 337 0 -2 5 -17 10 -34 9 -24 6 -44 -16 -109 -33 -98 -31 -173 7
-225 l24 -34 3 41 c3 42 40 93 49 67 3 -8 21 -7 68 6 36 10 67 16 70 13 11
-12 4 -35 -17 -53 -22 -19 -22 -20 -2 -10 27 13 53 -11 37 -31 -6 -7 -13 -25
-17 -40 -3 -15 -15 -30 -27 -33 -17 -6 -19 -9 -8 -16 20 -13 -15 -39 -55 -40
-28 -2 -29 -2 -5 -6 21 -3 28 -12 38 -51 l12 -47 190 -104 c105 -57 202 -114
216 -127 51 -47 165 -43 232 9 23 18 121 75 218 127 174 94 176 95 188 138 13
42 13 42 -14 42 -14 0 -32 4 -40 9 -17 11 -6 31 17 31 16 1 16 1 0 11 -13 7
-16 17 -11 42 3 18 11 35 17 39 7 5 4 12 -9 22 -42 31 23 73 93 60 41 -8 67
-52 59 -101 l-6 -34 28 20 c37 27 76 79 103 138 17 37 22 68 22 138 1 78 -3
98 -27 149 -26 57 -94 156 -107 156 -3 0 -12 -28 -19 -62z m25 -301 c-9 -30
-25 -65 -37 -78 -11 -13 -19 -17 -16 -9 2 8 15 57 28 108 22 85 25 91 33 64 5
-20 3 -47 -8 -85z m-143 -16 c-3 -13 2 -20 18 -24 19 -5 20 -8 9 -21 -7 -9
-18 -16 -24 -16 -6 0 -4 5 4 10 13 9 13 12 -2 21 -19 10 -25 49 -9 49 5 0 7
-8 4 -19z m-46 -9 c-19 -21 -22 -37 -5 -26 7 5 8 3 3 -6 -4 -7 -2 -16 6 -21
11 -7 10 -9 -3 -9 -27 0 -36 50 -13 67 26 18 31 16 12 -5z m-56 -46 c-10 -12
-8 -16 11 -22 l23 -8 -25 -6 c-33 -9 -40 -4 -40 26 0 14 4 23 9 19 5 -3 13 0
16 6 4 5 9 8 12 5 3 -3 0 -12 -6 -20z m-42 -28 c6 -17 9 -34 6 -36 -3 -3 -5 0
-5 6 0 19 -18 14 -23 -5 -3 -10 -5 1 -6 25 -1 50 13 55 28 10z m-46 15 c-7 -2
-14 -21 -14 -41 -2 -31 -3 -32 -6 -9 -3 17 -11 27 -21 27 -12 1 -10 5 8 15 14
8 30 14 35 14 6 0 4 -3 -2 -6z m-74 -40 c-8 -9 -10 -18 -4 -20 39 -13 44 -44
7 -42 -14 0 -13 2 3 9 19 9 19 9 -2 16 -13 3 -23 10 -23 14 0 18 13 40 22 40
6 0 4 -7 -3 -17z m-32 -55 c-2 -13 -4 -5 -4 17 -1 22 1 32 4 23 2 -10 2 -28 0
-40z m-23 -3 l6 -30 -15 25 c-8 14 -14 32 -15 40 0 23 17 -2 24 -35z m-33 11
c5 3 9 -2 9 -10 0 -9 -4 -16 -9 -16 -5 0 -12 -10 -14 -22 -2 -13 -5 -3 -5 22
0 25 2 39 5 32 2 -6 9 -10 14 -6z m149 -61 c-9 -11 -9 -15 -1 -15 7 0 9 -5 5
-11 -3 -6 0 -15 7 -20 11 -7 11 -9 -2 -9 -10 0 -19 11 -22 27 -6 31 -1 43 15
43 7 0 6 -6 -2 -15z m-83 -47 c-3 -8 -6 -5 -6 6 -1 11 2 17 5 13 3 -3 4 -12 1
-19z m46 2 c4 24 4 24 6 -2 0 -16 -3 -28 -9 -28 -10 0 -30 32 -30 47 1 4 7 -3
14 -17 l14 -24 5 24z m-59 -30 c4 -25 3 -31 -4 -20 -5 8 -10 26 -10 39 0 32 6
24 14 -19z m189 -12 c-11 -18 -10 -51 2 -61 6 -5 4 -7 -5 -4 -19 5 -26 57 -8
68 18 12 21 11 11 -3z m-43 -33 c10 -12 10 -21 2 -40 -15 -33 -29 -31 -37 5
-10 46 10 66 35 35z m-45 -54 c5 -17 4 -21 -5 -16 -7 4 -16 1 -21 -6 -6 -10
-9 -5 -9 16 0 24 2 27 11 15 8 -11 9 -8 5 15 -7 33 6 17 19 -24z m-55 17 c-1
-16 -30 -56 -31 -42 0 5 -4 0 -9 -11 -7 -17 -9 -14 -9 14 -1 29 1 32 14 21 13
-10 15 -9 15 9 0 11 5 21 10 21 6 0 10 -6 10 -12z m7 -50 c-3 -8 -6 -5 -6 6
-1 11 2 17 5 13 3 -3 4 -12 1 -19z"/>
<path d="M1560 693 c0 -10 4 -24 9 -32 7 -11 10 -9 16 8 7 22 0 41 -16 41 -5
0 -9 -8 -9 -17z"/>
<path d="M1073 1308 c-18 -6 -33 -17 -33 -24 0 -18 11 -18 45 0 24 13 34 12
98 -11 l72 -25 52 22 c37 15 68 21 103 18 58 -4 68 13 15 26 -28 6 -51 3 -99
-13 -77 -26 -93 -26 -147 -1 -49 22 -60 23 -106 8z"/>
<path d="M2 1230 c0 -19 2 -27 5 -17 2 9 2 25 0 35 -3 9 -5 1 -5 -18z"/>
<path d="M2582 1225 c0 -16 2 -22 5 -12 2 9 2 23 0 30 -3 6 -5 -1 -5 -18z"/>
<path d="M628 833 c6 -2 18 -2 25 0 6 3 1 5 -13 5 -14 0 -19 -2 -12 -5z"/>
<path d="M335 410 c21 -22 41 -40 44 -40 3 0 -13 18 -34 40 -21 22 -41 40 -44
40 -3 0 13 -18 34 -40z"/>
<path d="M2225 388 l-60 -63 63 60 c34 33 62 61 62 62 0 8 -10 -1 -65 -59z"/>
<path d="M390 356 c0 -2 8 -10 18 -17 15 -13 16 -12 3 4 -13 16 -21 21 -21 13z"/>
<path d="M2119 293 c-13 -16 -12 -17 4 -4 16 13 21 21 13 21 -2 0 -10 -8 -17
-17z"/>
<path d="M1128 13 c7 -3 16 -2 19 1 4 3 -2 6 -13 5 -11 0 -14 -3 -6 -6z"/>
<path d="M1448 13 c7 -3 16 -2 19 1 4 3 -2 6 -13 5 -11 0 -14 -3 -6 -6z"/>
<path d="M1278 3 c12 -2 30 -2 40 0 9 3 -1 5 -23 4 -22 0 -30 -2 -17 -4z"/>
</g>
</svg>
