<?xml version="1.0" standalone="no"?>
<!DOCTYPE svg PUBLIC "-//W3C//DTD SVG 20010904//EN"
 "http://www.w3.org/TR/2001/REC-SVG-20010904/DTD/svg10.dtd">
<svg version="1.0" xmlns="http://www.w3.org/2000/svg"
 width="259.000000pt" height="246.000000pt" viewBox="0 0 259.000000 246.000000"
 preserveAspectRatio="xMidYMid meet">

<g transform="translate(0.000000,246.000000) scale(0.100000,-0.100000)"
fill="#000000" stroke="none">
<path d="M1278 2453 c12 -2 30 -2 40 0 9 3 -1 5 -23 4 -22 0 -30 -2 -17 -4z"/>
<path d="M1128 2443 c6 -2 18 -2 25 0 6 3 1 5 -13 5 -14 0 -19 -2 -12 -5z"/>
<path d="M1438 2443 c6 -2 18 -2 25 0 6 3 1 5 -13 5 -14 0 -19 -2 -12 -5z"/>
<path d="M1058 2433 c6 -2 18 -2 25 0 6 3 1 5 -13 5 -14 0 -19 -2 -12 -5z"/>
<path d="M1508 2433 c6 -2 18 -2 25 0 6 3 1 5 -13 5 -14 0 -19 -2 -12 -5z"/>
<path d="M1008 2423 c7 -3 16 -2 19 1 4 3 -2 6 -13 5 -11 0 -14 -3 -6 -6z"/>
<path d="M1568 2423 c7 -3 16 -2 19 1 4 3 -2 6 -13 5 -11 0 -14 -3 -6 -6z"/>
<path d="M968 2413 c7 -3 16 -2 19 1 4 3 -2 6 -13 5 -11 0 -14 -3 -6 -6z"/>
<path d="M1608 2413 c7 -3 16 -2 19 1 4 3 -2 6 -13 5 -11 0 -14 -3 -6 -6z"/>
<path d="M350 2063 l-65 -68 68 65 c62 60 72 70 64 70 -1 0 -32 -30 -67 -67z"/>
<path d="M2230 2065 c35 -36 67 -65 69 -65 3 0 -24 29 -59 65 -35 36 -67 65
-69 65 -3 0 24 -29 59 -65z"/>
<path d="M229 1923 c-13 -16 -12 -17 4 -4 9 7 17 15 17 17 0 8 -8 3 -21 -13z"/>
<path d="M2340 1936 c0 -2 8 -10 18 -17 15 -13 16 -12 3 4 -13 16 -21 21 -21
13z"/>
<path d="M1355 1540 c-4 -6 -20 -8 -40 -4 -27 5 -35 2 -44 -15 -7 -12 -27 -28
-46 -36 -43 -17 -45 -35 -5 -35 20 0 39 9 55 26 l24 25 3 -33 c3 -28 7 -33 31
-36 27 -3 29 -2 22 27 -7 35 12 43 35 16 17 -20 42 -15 46 9 3 20 -19 49 -30
39 -3 -3 -14 2 -25 11 -13 12 -21 14 -26 6z m-15 -82 c0 -5 -4 -8 -10 -8 -5 0
-10 10 -10 23 0 18 2 19 10 7 5 -8 10 -18 10 -22z m-105 12 c-3 -5 -12 -10
-18 -10 -7 0 -6 4 3 10 19 12 23 12 15 0z"/>
<path d="M1337 1352 c-19 -20 -23 -37 -7 -27 10 6 33 45 27 45 -2 0 -11 -8
-20 -18z"/>
<path d="M1491 1339 c-1 -14 6 -34 14 -45 19 -25 19 -1 0 41 -13 30 -13 30
-14 4z"/>
<path d="M1180 1288 c-11 -18 -20 -36 -20 -40 0 -4 -6 -5 -14 -2 -20 8 -31
-66 -16 -111 9 -28 9 -43 0 -65 -7 -16 -10 -35 -7 -42 3 -7 10 1 17 20 7 17
19 32 27 32 8 0 13 -6 10 -12 -15 -42 -17 -58 -8 -58 6 0 13 11 17 25 5 21 12
25 43 25 45 1 77 18 102 56 24 36 24 40 -1 47 -14 3 -30 -4 -49 -24 -60 -60
-73 -30 -26 60 29 54 43 71 68 79 25 8 27 10 10 11 -39 2 -52 -10 -94 -86 -30
-53 -44 -72 -52 -64 -14 14 48 147 78 167 17 13 18 14 2 14 -10 0 -26 -14 -35
-31 -46 -82 -56 -95 -60 -76 -5 26 17 75 42 92 17 13 18 15 3 15 -9 0 -26 -15
-37 -32z"/>
<path d="M2 1230 c0 -19 2 -27 5 -17 2 9 2 25 0 35 -3 9 -5 1 -5 -18z"/>
<path d="M2582 1225 c0 -16 2 -22 5 -12 2 9 2 23 0 30 -3 6 -5 -1 -5 -18z"/>
<path d="M1520 1206 c0 -2 9 -23 19 -47 11 -25 25 -66 31 -92 9 -41 8 -51 -7
-72 -11 -15 -28 -24 -44 -25 -14 0 -45 -10 -70 -22 -24 -12 -64 -25 -89 -29
-64 -11 157 -1 255 12 101 13 218 44 267 71 69 39 62 74 -22 116 -53 27 -118
42 -287 68 -18 3 -33 9 -33 14 0 6 -4 10 -10 10 -5 0 -10 -2 -10 -4z"/>
<path d="M854 1160 c-45 -10 -104 -30 -132 -44 -76 -38 -80 -76 -14 -114 76
-42 234 -74 432 -86 l85 -5 -56 13 c-110 25 -171 86 -150 148 6 17 11 48 11
69 l0 39 -47 -1 c-27 0 -85 -9 -129 -19z"/>
<path d="M2230 393 l-65 -68 68 65 c37 35 67 66 67 67 0 8 -10 -2 -70 -64z"/>
<path d="M355 390 c33 -33 62 -60 64 -60 3 0 -21 27 -54 60 -33 33 -62 60 -64
60 -3 0 21 -27 54 -60z"/>
<path d="M465 290 c10 -11 20 -20 23 -20 3 0 -3 9 -13 20 -10 11 -20 20 -23
20 -3 0 3 -9 13 -20z"/>
<path d="M2119 293 c-13 -16 -12 -17 4 -4 16 13 21 21 13 21 -2 0 -10 -8 -17
-17z"/>
<path d="M1780 100 c-8 -5 -10 -10 -5 -10 6 0 17 5 25 10 8 5 11 10 5 10 -5 0
-17 -5 -25 -10z"/>
<path d="M1568 33 c7 -3 16 -2 19 1 4 3 -2 6 -13 5 -11 0 -14 -3 -6 -6z"/>
<path d="M1128 13 c7 -3 16 -2 19 1 4 3 -2 6 -13 5 -11 0 -14 -3 -6 -6z"/>
<path d="M1448 13 c7 -3 16 -2 19 1 4 3 -2 6 -13 5 -11 0 -14 -3 -6 -6z"/>
<path d="M1278 3 c12 -2 30 -2 40 0 9 3 -1 5 -23 4 -22 0 -30 -2 -17 -4z"/>
</g>
</svg>
