<?xml version="1.0" encoding="UTF-8" standalone="no"?>
<svg
   id="a"
   width="191.48"
   height="191.48"
   viewBox="0 0 191.48 191.48"
   version="1.1"
   sodipodi:docname="Hand.svg"
   inkscape:version="1.2.1 (9c6d41e410, 2022-07-14)"
   xmlns:inkscape="http://www.inkscape.org/namespaces/inkscape"
   xmlns:sodipodi="http://sodipodi.sourceforge.net/DTD/sodipodi-0.dtd"
   xmlns="http://www.w3.org/2000/svg"
   xmlns:svg="http://www.w3.org/2000/svg">
  <defs
     id="defs490" />
  <sodipodi:namedview
     id="namedview488"
     pagecolor="#ffffff"
     bordercolor="#000000"
     borderopacity="0.25"
     inkscape:showpageshadow="2"
     inkscape:pageopacity="0.0"
     inkscape:pagecheckerboard="0"
     inkscape:deskcolor="#d1d1d1"
     showgrid="false"
     inkscape:zoom="3.1906219"
     inkscape:cx="88.697443"
     inkscape:cy="98.883545"
     inkscape:window-width="1920"
     inkscape:window-height="1051"
     inkscape:window-x="-9"
     inkscape:window-y="-9"
     inkscape:window-maximized="1"
     inkscape:current-layer="a" />
  <circle
     cx="95.74"
     cy="95.74"
     r="95.74"
     fill="#579ad3"
     id="circle445"
     style="stroke:none" />
  <path
     d="M105.15,112.47c-1.68,1.31-3.18,2.78-4.37,4.56-1.64,2.46-2.47,5.16-2.38,8.13,0,.1,0,.19,0,.29,0,.01-.02,.02-.08,.07-.3-.68-.3-1.39-.39-2.09,.04-.24,.03-.47,0-.71,.17-3.4,1.9-5.99,4.32-8.19,.88-.8,1.81-1.53,2.85-2.13,.02,.02,.03,.05,.05,.07Z"
     fill="#f37878"
     id="path447" />
  <path
     d="M97.74,123.51c-.22-.01-.21-.22-.27-.35-1.44-3.2-3.42-6.01-6-8.39-.11-.1-.27-.18-.29-.38,.25-.07,.37,.14,.51,.26,1.56,1.33,2.82,2.93,3.96,4.62,.77,1.15,1.54,2.29,2.13,3.55-.08,.23-.13,.46-.04,.69Z"
     fill="#f37878"
     id="path449" />
  <path
     d="M91.49,109.05c2.66-1.33,5.44-2.11,8.44-1.94,.43,.02,.85,.12,1.28,.18,.03,.07,.06,.14,.09,.21-3.05-.33-5.99,.16-8.82,1.32-.3,.12-.64,.17-.91,.37-.03-.04-.05-.09-.08-.13Z"
     fill="#f37878"
     id="path451" />
  <path
     d="M90.45,109.75c-.45,.29-.9,.59-1.42,.76,.42-.35,.85-.67,1.35-.87,.02,.04,.05,.08,.07,.11Z"
     fill="#f4888a"
     id="path453" />
  <path
     d="M101.29,107.49c-.03-.07-.06-.14-.09-.21,.39,.03,.77,.13,1.13,.28,0,.03,0,.05-.01,.08-.35-.01-.69-.06-1.03-.15Z"
     fill="#fac1c2"
     id="path455" />
  <path
     d="M91.27,114.45c-.41-.14-.64-.43-.96-.69,.45,.11,.71,.3,.96,.69Z"
     fill="#f9babb"
     id="path457" />
  <path
     d="M90.45,109.75s-.05-.08-.07-.11c.34-.24,.72-.42,1.11-.59,.03,.04,.05,.09,.08,.13-.37,.19-.74,.38-1.12,.57Z"
     fill="#f9bbbc"
     id="path459" />
  <path
     d="M97.74,123.51c-.1-.24-.04-.47,.04-.69,.05-.03,.1-.07,.16-.1,.04,.24,.04,.47,0,.71-.07,.03-.13,.06-.2,.09Z"
     fill="#f04c4d"
     id="path461" />
  <path
     d="M105.15,112.47s-.03-.04-.05-.07c.29-.22,.6-.41,.99-.59-.31,.29-.62,.48-.94,.65Z"
     fill="#f9b6b7"
     id="path463" />
  <path
     d="M102.34,107.57c.08,.02,.23,0,.2,.11-.03,.09-.14,.01-.21-.03,0-.03,0-.05,.01-.08Z"
     fill="#fac1c2"
     id="path465" />
  <g
     id="g471"
     style="stroke:none">
    <path
       d="M87.6,121.15c1.04,3.63,3.17,6.52,6.02,8.93,.25,.21,.3,.39,.26,.69-.59,4.46-1.16,8.92-1.75,13.37l15.6-.24c.21-.08,.27-.23,.25-.52-.08-1.23-.14-2.47-.23-3.7-.39-5.19-.85-10.36-1.18-15.55-.01-.23-.03-.42,.18-.6,1.96-1.71,3.34-3.84,4.42-6.18,1.94-4.17,2.9-8.6,3.43-13.13,.09-.76,.14-1.52,.21-2.33-1.12,.71-2.17,1.38-3.23,2.04-.27,.16-.41,.37-.5,.67-.21,.71-.42,1.42-.67,2.11-.56,1.59-1.34,3.05-2.52,4.28-.21,.22-.3,.26-.45-.06-.42-.87-.87-1.72-1.33-2.56-1.01-1.81-1.69-3.73-2.09-5.77-.34-1.73-.54-3.49-.8-5.23-.82,.18-1.65,.36-2.51,.54,.04-.68,.09-1.31,.12-1.95,.1-2,.26-3.99,.23-5.99-.44,.16-.88,.32-1.31,.48-1.07,.4-1.06,.41-1.01,1.56,.17,4.11,.35,8.21,.39,12.32,0,.19,.06,.39-.13,.56-.49-5.71-.72-11.43-1.02-17.19-1.1,.41-2.14,.8-3.17,1.18-.2,.07-.26,.19-.27,.39-.03,1.14-.13,2.28-.12,3.42,.02,4.19,.08,8.38-.03,12.57,0,.19,.05,.4-.14,.58-.22-4.46-.2-8.92-.24-13.42-.89,.36-1.73,.72-2.58,1.04-.35,.13-.47,.31-.47,.7,0,4.34-.1,8.67-.41,12.99-.02,.23,0,.46-.12,.68-.12-.05-.13-.14-.13-.21-.01-.83-.04-1.67-.03-2.5,.02-2.91,.12-5.81,.23-8.71,0-.26,.09-.54-.37-.35-.5,.21-1.02,.38-1.55,.52-.37,.1-.49,.27-.51,.66-.25,6.37-.55,12.74-.94,19.1-.1,1.63,.03,3.24,.48,4.82Zm17.5-8.75c.29-.22,.6-.41,.99-.59-.31,.29-.62,.48-.94,.65-1.68,1.31-3.18,2.78-4.37,4.56-1.64,2.46-2.47,5.16-2.38,8.13,0,.1,0,.19,0,.29,0,.01-.02,.02-.08,.07-.3-.68-.3-1.39-.39-2.09-.06,.03-.13,.06-.19,.09-.22-.01-.21-.22-.27-.35-1.44-3.2-3.42-6.01-6-8.39-.1-.1-.25-.18-.28-.35-.36-.15-.59-.41-.88-.66,.42,.1,.67,.28,.91,.62,.23-.04,.35,.15,.48,.27,1.56,1.33,2.82,2.93,3.96,4.62,.77,1.15,1.54,2.29,2.13,3.55,.05-.03,.1-.07,.16-.1,.17-3.4,1.9-5.99,4.32-8.19,.88-.8,1.81-1.53,2.85-2.13Zm-14.72-2.76c.34-.24,.72-.42,1.11-.59,2.66-1.33,5.44-2.11,8.44-1.94,.43,.02,.85,.12,1.28,.18,.39,.03,.77,.13,1.13,.28,.08,.02,.23,0,.2,.11-.03,.09-.14,.01-.21-.03-.35-.01-.69-.06-1.03-.15-3.05-.33-5.99,.16-8.82,1.32-.3,.12-.64,.17-.91,.37-.37,.19-.74,.38-1.12,.57-.45,.29-.9,.59-1.42,.76,.42-.35,.85-.67,1.35-.87Z"
       fill="#e2b9d7"
       id="path467"
       style="stroke:none" />
    <path
       d="M91.22,114.38s-.02,0-.03,0c0,.01,0,.02,0,.03,.03,.01,.05,.03,.08,.04-.02-.03-.03-.05-.05-.07Z"
       fill="#e2b9d7"
       id="path469"
       style="stroke:none" />
  </g>
  <rect
     x="90.76"
     y="140.16"
     width="18.74"
     height="17.62"
     fill="#fff"
     id="rect473"
     style="stroke:none" />
  <rect
     x="90.55"
     y="142.24"
     width="20.78"
     height="47.34"
     fill="#010101"
     id="rect475"
     style="stroke:none" />
  <g
     id="g485">
    <rect
       x="82.89"
       y="37.92"
       width="18"
       height="16.93"
       fill="#fff"
       id="rect477"
       style="stroke:none" />
    <g
       id="g483">
      <path
         d="M110.79,93.99c-.98-.48-1.96-1-2.98-1.42-.59-.24-.88-.65-1.1-1.2-.45-1.1-.98-2.16-1.64-3.16-.55-.82-1.2-1.55-1.94-2.19-.14-.12-.38-.46-.53-.02-.59,1.68-1.32,3.32-1.8,5.04-.44,1.58-.57,3.21-.63,4.84-.05,1.33-.12,2.65,0,3.98-.03,1.97,.13,3.94,.23,5.91,.03,.63,.07,1.25,.12,1.92-.85-.18-1.66-.36-2.47-.53-.38-.1-.76-.23-1.14-.3-.35-.06-.45-.24-.47-.57-.34-4.54-.69-9.08-1.06-13.62-.03-.43-.02-.9-.31-1.36-.13,.38-.09,.7-.08,1,.14,3.83,.44,7.64,.71,11.46,.13,1.89,.29,3.78,.44,5.68,.02,.3,0,.48-.4,.37-.9-.24-1.81-.45-2.72-.65-.26-.06-.37-.18-.41-.43-.17-1.01-.4-2.02-.51-3.04-.53-4.6-1.02-9.21-1.53-13.81-.02-.19,0-.4-.16-.55-.14,.08-.1,.18-.1,.27,0,1.24,.1,2.46,.23,3.69,.36,3.4,.74,6.79,1.12,10.18,.03,.26-.04,.3-.28,.23-.78-.22-1.55-.45-2.34-.62-.41-.09-.53-.3-.56-.68-.04-.57-.12-1.13-.2-1.7-.46-3.32-.91-6.64-1.39-9.96-.13-.9-.15-1.82-.48-2.69-.14,.16-.09,.35-.09,.53,0,2.03,.31,4.03,.59,6.04,.27,1.94,.58,3.88,.89,5.82,.04,.28,0,.33-.28,.27-.6-.14-1.21-.25-1.81-.37-.24-.04-.34-.16-.38-.4-.11-.74-.26-1.46-.38-2.2-.87-5.34-1.8-10.67-2.8-15.99-.38-1.98-.5-3.95-.09-5.94,.69-3.39,2.35-6.28,4.68-8.81,.19-.21,.27-.39,.22-.67-.13-.67-.23-1.34-.35-2.01-.77-4.31-1.53-8.62-2.31-12.93h15.78c.18,.06,.23,.2,.22,.48-.08,2.39-.15,4.78-.21,7.16-.1,3.97-.16,7.94,.02,11.91,.02,.52,.17,.85,.63,1.1,.33,.18,.61,.44,.9,.69,2.18,1.9,3.78,4.24,5.09,6.79,1.98,3.86,3.26,7.96,4.12,12.19,.02,.07,.05,.15-.04,.25Zm-20.46-3.07s0,.01,.01,.02c0-.01,0-.03,0-.04,0,0-.01,.02-.01,.02Zm.02,.06s0,.07,0,.11c0,.03,.02,.06,.03,.09,0-.03,0-.06,0-.09-.01-.03-.03-.07-.04-.1Zm4.73,.2l-.02,.02h.02s0-.02,0-.02Z"
         fill="#524b1e"
         id="path479"
         style="stroke:none" />
      <rect
         x="80.71"
         y="3.37"
         width="21.87"
         height="46.66"
         fill="#010101"
         id="rect481"
         style="stroke:none" />
    </g>
  </g>
</svg>
