<?xml version="1.0" standalone="no"?>
<!DOCTYPE svg PUBLIC "-//W3C//DTD SVG 20010904//EN"
 "http://www.w3.org/TR/2001/REC-SVG-20010904/DTD/svg10.dtd">
<svg version="1.0" xmlns="http://www.w3.org/2000/svg"
 width="340.000000pt" height="340.000000pt" viewBox="0 0 340.000000 340.000000"
 preserveAspectRatio="xMidYMid meet">

<g transform="translate(0.000000,340.000000) scale(0.100000,-0.100000)"
fill="#000000" stroke="none">
<path d="M1628 3234 l-2 -169 -3 156 -3 156 -43 6 c-23 3 -47 1 -54 -4 -6 -6
-25 -10 -40 -8 -15 1 -36 -2 -45 -6 -10 -4 -25 -5 -33 -2 -8 4 -17 1 -21 -4
-3 -6 -15 -9 -25 -6 -10 3 -21 1 -24 -3 -4 -7 -56 -20 -100 -26 -5 0 -17 -4
-25 -7 -8 -4 -52 -20 -96 -36 -466 -169 -853 -566 -1010 -1036 -19 -56 -34
-110 -34 -119 0 -9 -3 -16 -7 -16 -5 0 -9 -16 -10 -36 -1 -20 -5 -44 -9 -53
-4 -9 -6 -26 -5 -38 1 -13 -1 -23 -6 -23 -5 0 -9 -17 -10 -37 -1 -21 -4 -65
-8 -98 -11 -100 -5 -280 9 -304 4 -6 6 -24 5 -39 -1 -15 2 -35 6 -44 4 -10 5
-25 2 -33 -4 -8 -1 -17 4 -21 6 -3 9 -15 6 -25 -3 -10 -1 -22 5 -25 5 -3 8
-15 5 -25 -3 -10 -1 -19 4 -21 5 -2 10 -16 13 -33 2 -16 7 -39 11 -50 4 -11
22 -58 40 -105 150 -397 456 -731 834 -914 60 -29 142 -63 182 -77 41 -13 76
-26 79 -29 3 -3 10 -5 15 -5 28 -1 96 -18 100 -25 3 -4 14 -6 24 -3 10 3 21 0
25 -5 3 -5 17 -7 30 -5 23 5 25 10 29 67 l3 61 2 -71 c2 -65 4 -72 25 -78 45
-12 236 -18 340 -11 l107 7 2 416 3 417 2 -400 c2 -220 5 -406 8 -414 4 -11 8
-11 20 -1 8 7 24 10 35 7 11 -3 23 -1 26 5 3 5 15 8 25 5 10 -3 21 -1 24 3 4
7 56 20 100 26 6 0 19 5 30 9 11 4 58 22 105 40 354 134 656 389 850 716 27
46 54 89 59 95 5 7 7 15 4 18 -4 3 -2 6 4 6 5 0 10 6 11 13 0 6 16 51 36 99
19 47 43 115 53 150 9 34 20 65 23 68 3 3 6 21 8 40 1 19 5 42 9 50 3 8 5 25
4 38 -1 12 1 22 6 22 5 0 9 17 10 38 1 20 4 64 8 97 11 100 5 280 -9 304 -4 6
-6 24 -5 39 1 15 -2 35 -6 45 -4 9 -5 24 -2 32 4 8 1 17 -4 21 -6 3 -9 15 -6
25 3 10 1 22 -5 25 -5 3 -8 15 -5 25 3 11 2 19 -3 19 -4 0 -11 17 -15 38 -10
56 -72 216 -121 313 -160 321 -436 593 -764 754 -62 30 -119 55 -126 55 -8 0
-14 5 -14 10 0 6 -3 9 -7 8 -12 -3 -113 25 -113 31 0 3 -13 7 -30 8 l-29 2 -4
-97 -3 -97 -2 107 c-2 92 -4 107 -19 112 -56 17 -216 38 -330 43 l-133 6 -2
-169z m479 -391 c-1 -49 -3 -9 -3 87 0 96 2 136 3 88 2 -49 2 -127 0 -175z
m-490 -65 c-1 -51 -3 -12 -3 87 0 99 2 141 3 93 2 -48 2 -129 0 -180z m480
-235 c-2 -37 -3 -9 -3 62 0 72 1 102 3 68 2 -34 2 -93 0 -130z m-464 -56 c18
-3 18 -4 -3 -3 -25 1 -25 2 -26 91 l0 90 3 -87 c3 -80 5 -87 26 -91z m275 -4
l112 -6 0 -44 c0 -42 -1 -43 -33 -43 l-34 0 9 -56 c5 -30 21 -78 37 -107 62
-111 92 -274 71 -387 -13 -70 -24 -92 -44 -84 -9 3 -15 -8 -20 -33 -3 -21 -16
-54 -28 -73 -12 -19 -21 -43 -19 -54 1 -10 0 -29 -4 -43 -4 -19 -11 -24 -32
-21 -34 4 -38 18 -54 203 -8 83 -15 132 -17 110 -2 -22 1 -96 8 -164 9 -101 9
-126 -2 -132 -36 -23 -62 32 -88 192 -31 181 -47 235 -82 264 -16 14 -37 25
-45 25 -9 0 -49 -31 -89 -70 -75 -70 -117 -89 -130 -55 -6 15 108 172 230 319
59 70 66 84 66 122 0 37 -3 43 -22 46 -13 2 -23 9 -22 16 1 6 2 28 3 47 l1 35
58 0 c31 0 108 -3 170 -7z m-301 -744 c7 -13 13 -44 14 -69 0 -25 6 -94 14
-155 l14 -110 -4 115 c-3 63 -8 139 -11 167 -6 44 -4 54 10 59 39 15 66 -50
91 -221 9 -55 22 -124 31 -154 16 -57 60 -111 90 -111 9 0 50 32 90 70 74 70
117 89 130 56 7 -19 -225 -330 -269 -361 -11 -7 -21 -30 -24 -53 l-5 -39 38 1
39 1 3 -47 3 -48 -175 0 -176 0 0 45 c0 35 4 45 16 45 24 0 11 71 -25 135 -50
87 -74 187 -75 305 0 112 15 167 46 162 11 -2 17 9 22 36 3 21 17 55 31 76 16
24 25 51 25 76 0 54 34 66 57 19z m-107 -889 c0 -5 -12 -10 -27 -9 l-28 1 25
8 c14 4 26 8 28 9 1 1 2 -3 2 -9z m-63 -332 c-1 -62 -3 -14 -3 107 0 121 2
172 3 113 2 -59 2 -158 0 -220z"/>
</g>
</svg>
