<?xml version="1.0" encoding="UTF-8" standalone="no"?>
<svg
   id="uuid-d38f0853-3d28-4eb5-9091-35e8f74f01fe"
   viewBox="0 0 191.53 191.53"
   version="1.1"
   sodipodi:docname="123.svg"
   inkscape:version="1.2.1 (9c6d41e410, 2022-07-14)"
   xmlns:inkscape="http://www.inkscape.org/namespaces/inkscape"
   xmlns:sodipodi="http://sodipodi.sourceforge.net/DTD/sodipodi-0.dtd"
   xmlns="http://www.w3.org/2000/svg"
   xmlns:svg="http://www.w3.org/2000/svg">
  <sodipodi:namedview
     id="namedview12412"
     pagecolor="#ffffff"
     bordercolor="#000000"
     borderopacity="0.25"
     inkscape:showpageshadow="2"
     inkscape:pageopacity="0.0"
     inkscape:pagecheckerboard="0"
     inkscape:deskcolor="#d1d1d1"
     showgrid="false"
     inkscape:zoom="4.5110427"
     inkscape:cx="58.523055"
     inkscape:cy="95.875839"
     inkscape:window-width="1920"
     inkscape:window-height="1051"
     inkscape:window-x="-9"
     inkscape:window-y="-9"
     inkscape:window-maximized="1"
     inkscape:current-layer="uuid-d38f0853-3d28-4eb5-9091-35e8f74f01fe" />
  <defs
     id="defs12385">
    <radialGradient
       id="uuid-31311afc-3eba-4c73-9cba-0e9941265180"
       cx="85.02"
       cy="86.82"
       fx="85.02"
       fy="86.82"
       r="70.85"
       gradientUnits="userSpaceOnUse">
      <stop
         offset="0"
         stop-color="#ffd183"
         id="stop12380" />
      <stop
         offset=".84"
         stop-color="#3e3510"
         id="stop12382" />
    </radialGradient>
  </defs>
  <circle
     cx="95.76"
     cy="95.76"
     r="95.76"
     fill="#55c9f2"
     id="circle12387"
     style="stroke:none" />
  <path
     id="path12898"
     d="M 164.28,123.18 A 69.059998,23.67 0 0 1 95.220001,146.85 69.059998,23.67 0 0 1 26.160004,123.18 69.059998,23.67 0 0 1 95.220001,99.51 69.059998,23.67 0 0 1 164.28,123.18 Z"
     style="fill:#000000;fill-opacity:1;stroke:none" />
  <g
     id="g12409"
     style="stroke:none">
    <path
       d="M144.97,132.56c-2.17,8.29-60.05,24.66-87.34,4.99-4.98-3.59-6.42-10.44-2.6-15.26,.94-1.18,1.7-1.61,1.7-1.61-3.08-10.59-.94-25.57,5.38-38.16,1.26-2.51,10.74-19.46,26.02-23.16,.99-3.01,7.35-6.7,5.53-7.62-2.09-1.05-4.65-3.15-6.67-4.96-2.1-1.88-1.61-5.28,.92-6.53,1.4-.7,2.68-1.46,3.02-2.49,4.23-12.67,32.58-1.57,32.92,3.71,.09,1.46-1.44,1.88-1.86,4.46-.28,1.72,9.35,6.26,3.97,10.83-.23,.2-.45,.43-.63,.68-2.92,4.08-8.3-.09-9.04,1.85-.56,1.48,1.17,2.72,.62,4.08-.1,.25-.31,.58-.89,.87,1.49,.8,2.33,1.36,2.33,1.36,0,0,13.63,10.77,13.86,29.68,.24,19.44,16.85,21.57,12.75,37.28Z"
       fill="url(#uuid-31311afc-3eba-4c73-9cba-0e9941265180)"
       id="path12391"
       style="stroke:none" />
    <g
       id="g12401"
       style="stroke:none">
      <text
         transform="translate(80.72 111.87) rotate(7.56)"
         fill="#543913"
         font-family="Algerian, Algerian"
         font-size="41.26"
         id="text12395"
         style="stroke:none"><tspan
           x="0"
           y="0"
           id="tspan12393"
           style="stroke:none">$</tspan></text>
      <text
         transform="translate(80.57 111.87) rotate(7.56)"
         fill="#f26722"
         font-family="Algerian, Algerian"
         font-size="41.26"
         id="text12399"
         style="stroke:none"><tspan
           x="0"
           y="0"
           id="tspan12397"
           style="stroke:none">$</tspan></text>
    </g>
    <path
       d="M84.29,58.82s5.71-2.61,7.05-2.54"
       fill="#ffbc2a"
       id="path12403"
       style="stroke:none" />
    <path
       d="M117.8,61.79c-3.66-8.61-13.49-8.33-15.7-8.15-.28,.02-.55-.07-.74-.27-.66-.65-2.37-2.05-4.53-1.67-2.78,.49-3.79,2.44-4.61,3.59-1.52,2.12-5.07,4.89-8.71,5.11-1.23,.07-11.62,2.93-.6,4.91,9.63,1.73,11.93-4.72,12.36-6.37,.06-.25,.23-.46,.45-.59l.47-.27c.64-.36,1.44,.1,1.44,.83v.58c0,.12-.02,.24-.06,.35l-1.51,3.94c-.18,.47-.5,1.14,.18,2.7,.96,2.23,3.63,2.5,5.26,2.04,3.74-1.06,5.62-4.5,2.29-13.37,1.31,.05,13.91,4.22,12.43,7.32-.05,.1,.06,.21,.14,.27,.57,.4,2.62,1.73,1.47-.97Zm-23.9-3.57s-3.08,5.16-4.89,5.43c-2.49,.37-5.77,.93-8.46-.81,0,0,7.72-.43,11.25-5.2,3.53-4.77,3.96-3.78,3.96-3.78l-1.86,4.35Zm9.09,7.76c-.19,.11-.38,.21-.56,.33-.7,.46-2.32,1.47-3.22,1.58-1.17,.14-2.12-1.86-2.04-2.7,.1-.95,1.23-2.26,1.85-3.34,.62-1.08,.19-2.01-.9-3.78s0-2.9,0-2.9c-.09-.82,3.01-.86,3.81,.74,.1,.2,.19,.55,.26,.91,.19,.95,.47,1.86,.86,2.75,.54,1.23,1.22,3.01,1.2,4.15-.02,1.41-.85,2.05-1.26,2.27Z"
       fill="#2a0e00"
       id="path12405"
       style="stroke:none" />
    <path
       d="M118.04,63.52c-.46-.14,.32-.55,.08-2.93l.96,1.47c.47,.73-.2,1.7-1.04,1.45Z"
       id="path12407"
       style="stroke:none" />
  </g>
</svg>
